<svg xmlns="http://www.w3.org/2000/svg" xmlns:xlink="http://www.w3.org/1999/xlink" width="64" zoomAndPan="magnify" viewBox="0 0 48 48" height="64" preserveAspectRatio="xMidYMid meet" version="1.0"><defs><g/></defs><g fill="#009966" fill-opacity="1"><g transform="translate(9.461097, 41.510205)"><g><path d="M 5.796875 0 L 15.78125 0 C 23.03125 0 27.71875 -4.140625 27.71875 -10.640625 C 27.71875 -15.484375 24.875 -18.4375 20.375 -19.375 L 20.375 -19.53125 C 23.328125 -20.828125 24.875 -23.328125 24.875 -26.375 C 24.875 -32.015625 20.6875 -35.5625 14.984375 -35.5625 L 5.796875 -35.5625 C 3.796875 -35.5625 2.203125 -34.0625 2.203125 -32.0625 L 2.203125 -3.5 C 2.203125 -1.5 3.796875 0 5.796875 0 Z M 9.390625 -21.4375 L 9.390625 -29.171875 L 13.53125 -29.171875 C 15.984375 -29.171875 17.6875 -27.78125 17.6875 -25.328125 C 17.6875 -22.78125 15.828125 -21.4375 13.59375 -21.4375 Z M 9.390625 -6.390625 L 9.390625 -15.03125 L 14.890625 -15.03125 C 17.890625 -15.03125 20.28125 -13.484375 20.28125 -10.734375 C 20.28125 -7.890625 18.1875 -6.390625 14.9375 -6.390625 Z M 9.390625 -6.390625 "/></g></g></g></svg>