<svg xmlns="http://www.w3.org/2000/svg" xmlns:xlink="http://www.w3.org/1999/xlink" width="125" zoomAndPan="magnify" viewBox="0 0 93.75 37.5" height="50" preserveAspectRatio="xMidYMid meet" version="1.0"><defs><g/><clipPath id="e000cfe816"><path d="M 2.789062 3.070312 L 90.796875 3.070312 L 90.796875 33.933594 L 2.789062 33.933594 Z M 2.789062 3.070312 " clip-rule="nonzero"/></clipPath><clipPath id="df94d23761"><path d="M 18.21875 3.070312 L 75.285156 3.070312 C 83.804688 3.070312 90.714844 9.980469 90.714844 18.503906 C 90.714844 27.027344 83.804688 33.933594 75.285156 33.933594 L 18.21875 33.933594 C 9.695312 33.933594 2.789062 27.027344 2.789062 18.503906 C 2.789062 9.980469 9.695312 3.070312 18.21875 3.070312 Z M 18.21875 3.070312 " clip-rule="nonzero"/></clipPath></defs><g clip-path="url(#e000cfe816)"><g clip-path="url(#df94d23761)"><path fill="#009966" d="M 2.789062 3.070312 L 90.675781 3.070312 L 90.675781 33.933594 L 2.789062 33.933594 Z M 2.789062 3.070312 " fill-opacity="1" fill-rule="nonzero"/></g></g><g fill="#ffffff" fill-opacity="1"><g transform="translate(14.836383, 24.794408)"><g><path d="M 2.40625 0 L 6.546875 0 C 9.546875 0 11.5 -1.71875 11.5 -4.40625 C 11.5 -6.421875 10.3125 -7.640625 8.453125 -8.03125 L 8.453125 -8.09375 C 9.671875 -8.640625 10.3125 -9.671875 10.3125 -10.9375 C 10.3125 -13.28125 8.578125 -14.75 6.21875 -14.75 L 2.40625 -14.75 C 1.578125 -14.75 0.90625 -14.125 0.90625 -13.296875 L 0.90625 -1.453125 C 0.90625 -0.625 1.578125 0 2.40625 0 Z M 3.890625 -8.890625 L 3.890625 -12.09375 L 5.609375 -12.09375 C 6.625 -12.09375 7.328125 -11.515625 7.328125 -10.5 C 7.328125 -9.453125 6.5625 -8.890625 5.640625 -8.890625 Z M 3.890625 -2.65625 L 3.890625 -6.234375 L 6.171875 -6.234375 C 7.421875 -6.234375 8.40625 -5.59375 8.40625 -4.453125 C 8.40625 -3.28125 7.546875 -2.65625 6.1875 -2.65625 Z M 3.890625 -2.65625 "/></g></g></g><g fill="#ffffff" fill-opacity="1"><g transform="translate(27.146301, 24.794408)"><g><path d="M 5.71875 0.296875 C 8.890625 0.296875 11.015625 -2.21875 11.015625 -5.515625 C 11.015625 -8.875 8.828125 -11.3125 5.71875 -11.3125 C 2.5625 -11.3125 0.421875 -8.8125 0.421875 -5.515625 C 0.421875 -2.21875 2.546875 0.296875 5.71875 0.296875 Z M 5.71875 -2.4375 C 4.234375 -2.4375 3.3125 -3.734375 3.3125 -5.515625 C 3.3125 -7.296875 4.25 -8.578125 5.703125 -8.578125 C 7.234375 -8.578125 8.125 -7.265625 8.125 -5.515625 C 8.125 -3.734375 7.1875 -2.4375 5.71875 -2.4375 Z M 5.71875 -2.4375 "/></g></g></g><g fill="#ffffff" fill-opacity="1"><g transform="translate(38.83451, 24.794408)"><g><path d="M 5.71875 0.296875 C 8.890625 0.296875 11.015625 -2.21875 11.015625 -5.515625 C 11.015625 -8.875 8.828125 -11.3125 5.71875 -11.3125 C 2.5625 -11.3125 0.421875 -8.8125 0.421875 -5.515625 C 0.421875 -2.21875 2.546875 0.296875 5.71875 0.296875 Z M 5.71875 -2.4375 C 4.234375 -2.4375 3.3125 -3.734375 3.3125 -5.515625 C 3.3125 -7.296875 4.25 -8.578125 5.703125 -8.578125 C 7.234375 -8.578125 8.125 -7.265625 8.125 -5.515625 C 8.125 -3.734375 7.1875 -2.4375 5.71875 -2.4375 Z M 5.71875 -2.4375 "/></g></g></g><g fill="#ffffff" fill-opacity="1"><g transform="translate(50.522721, 24.794408)"><g><path d="M 2.328125 0.125 C 3.15625 0.125 3.75 -0.53125 3.75 -1.375 L 3.75 -5.234375 L 7.359375 -0.828125 C 7.921875 -0.140625 8.265625 0.125 8.953125 0.125 C 9.765625 0.125 10.34375 -0.46875 10.34375 -1.203125 C 10.34375 -1.515625 10.1875 -1.828125 9.765625 -2.359375 L 6.46875 -6.234375 L 8.65625 -8.21875 C 9.484375 -9.03125 9.734375 -9.328125 9.734375 -9.828125 C 9.734375 -10.5625 9.15625 -11.140625 8.375 -11.140625 C 7.921875 -11.140625 7.5 -10.890625 7.140625 -10.5625 L 3.75 -7.328125 L 3.75 -14.484375 C 3.75 -15.296875 3.15625 -15.953125 2.328125 -15.953125 C 1.46875 -15.953125 0.875 -15.296875 0.875 -14.484375 L 0.875 -1.375 C 0.875 -0.53125 1.46875 0.125 2.328125 0.125 Z M 2.328125 0.125 "/></g></g></g><g fill="#ffffff" fill-opacity="1"><g transform="translate(60.905332, 24.794408)"><g><path d="M 2.796875 0.296875 C 3.703125 0.296875 4.4375 -0.453125 4.4375 -1.34375 C 4.4375 -2.21875 3.6875 -2.984375 2.796875 -2.984375 C 1.921875 -2.984375 1.15625 -2.21875 1.15625 -1.34375 C 1.15625 -0.4375 1.921875 0.296875 2.796875 0.296875 Z M 2.796875 0.296875 "/></g></g></g><g fill="#ffffff" fill-opacity="1"><g transform="translate(66.74943, 24.794408)"><g><path d="M 2.40625 0.125 C 3.3125 0.125 3.890625 -0.453125 3.890625 -1.421875 L 3.890625 -13.328125 C 3.890625 -14.296875 3.3125 -14.875 2.40625 -14.875 C 1.515625 -14.875 0.90625 -14.296875 0.90625 -13.328125 L 0.90625 -1.421875 C 0.90625 -0.453125 1.515625 0.125 2.40625 0.125 Z M 2.40625 0.125 "/></g></g></g><g fill="#ffffff" fill-opacity="1"><g transform="translate(71.826755, 24.794408)"><g><path d="M 3.21875 0.125 C 4.0625 0.125 4.65625 -0.53125 4.65625 -1.375 L 4.65625 -8.390625 L 5.609375 -8.390625 C 6.4375 -8.390625 7.046875 -8.78125 7.046875 -9.703125 C 7.046875 -10.625 6.4375 -11.015625 5.609375 -11.015625 L 4.65625 -11.015625 L 4.65625 -13.234375 C 4.65625 -14.0625 4.0625 -14.734375 3.21875 -14.734375 C 2.375 -14.734375 1.78125 -14.0625 1.78125 -13.234375 L 1.78125 -11.015625 L 1.390625 -11.015625 C 0.296875 -11.015625 -0.203125 -10.59375 -0.203125 -9.703125 C -0.203125 -8.828125 0.296875 -8.390625 1.40625 -8.390625 L 1.78125 -8.390625 L 1.78125 -1.375 C 1.78125 -0.53125 2.375 0.125 3.21875 0.125 Z M 3.21875 0.125 "/></g></g></g></svg>